<?xml version="1.0" standalone="no"?><!DOCTYPE svg PUBLIC "-//W3C//DTD SVG 1.1//EN" "http://www.w3.org/Graphics/SVG/1.1/DTD/svg11.dtd"><svg xmlns:xlink="http://www.w3.org/1999/xlink" version="1.1" style="font-family:'lucida grande', 'lucida sans unicode', arial, helvetica, sans-serif;font-size:12px;" xmlns="http://www.w3.org/2000/svg" width="600" height="400"><desc>Created with Highcharts 4.2.3</desc><defs><clipPath id="highcharts-7"><rect x="0" y="0" width="520" height="248"></rect></clipPath></defs><rect x="0" y="0" width="600" height="400" fill="#FFFFFF" class=" highcharts-background"></rect><g class="highcharts-grid" ></g><g class="highcharts-grid" ><path fill="none" d="M 70 319.5 L 590 319.5" stroke="#D8D8D8" stroke-width="1"  opacity="1"></path><path fill="none" d="M 70 278.5 L 590 278.5" stroke="#D8D8D8" stroke-width="1"  opacity="1"></path><path fill="none" d="M 70 236.5 L 590 236.5" stroke="#D8D8D8" stroke-width="1"  opacity="1"></path><path fill="none" d="M 70 195.5 L 590 195.5" stroke="#D8D8D8" stroke-width="1"  opacity="1"></path><path fill="none" d="M 70 154.5 L 590 154.5" stroke="#D8D8D8" stroke-width="1"  opacity="1"></path><path fill="none" d="M 70 112.5 L 590 112.5" stroke="#D8D8D8" stroke-width="1"  opacity="1"></path><path fill="none" d="M 70 71.5 L 590 71.5" stroke="#D8D8D8" stroke-width="1"  opacity="1"></path></g><g class="highcharts-axis" ><path fill="none" d="M 112.5 319 L 112.5 329" stroke="#C0D0E0" stroke-width="1" opacity="1"></path><path fill="none" d="M 156.5 319 L 156.5 329" stroke="#C0D0E0" stroke-width="1" opacity="1"></path><path fill="none" d="M 199.5 319 L 199.5 329" stroke="#C0D0E0" stroke-width="1" opacity="1"></path><path fill="none" d="M 242.5 319 L 242.5 329" stroke="#C0D0E0" stroke-width="1" opacity="1"></path><path fill="none" d="M 286.5 319 L 286.5 329" stroke="#C0D0E0" stroke-width="1" opacity="1"></path><path fill="none" d="M 329.5 319 L 329.5 329" stroke="#C0D0E0" stroke-width="1" opacity="1"></path><path fill="none" d="M 372.5 319 L 372.5 329" stroke="#C0D0E0" stroke-width="1" opacity="1"></path><path fill="none" d="M 416.5 319 L 416.5 329" stroke="#C0D0E0" stroke-width="1" opacity="1"></path><path fill="none" d="M 459.5 319 L 459.5 329" stroke="#C0D0E0" stroke-width="1" opacity="1"></path><path fill="none" d="M 502.5 319 L 502.5 329" stroke="#C0D0E0" stroke-width="1" opacity="1"></path><path fill="none" d="M 546.5 319 L 546.5 329" stroke="#C0D0E0" stroke-width="1" opacity="1"></path><path fill="none" d="M 590.5 319 L 590.5 329" stroke="#C0D0E0" stroke-width="1" opacity="1"></path><path fill="none" d="M 69.5 319 L 69.5 329" stroke="#C0D0E0" stroke-width="1" opacity="1"></path><path fill="none" d="M 70 319.5 L 590 319.5" stroke="#C0D0E0" stroke-width="1" ></path></g><g class="highcharts-axis" ><text x="28.046875"  text-anchor="middle" transform="translate(0,0) rotate(270 28.046875 195)" class=" highcharts-yaxis-title" style="color:#707070;fill:#707070;" y="195">Temperature</text></g><g class="highcharts-series-group" ><g class="highcharts-series highcharts-series-0"  transform="translate(70,71) scale(1 1)" clip-path="url(#highcharts-7)"><path fill="none" d="M 21.666666666666668 190.13333333333333 C 21.666666666666668 190.13333333333333 47.66666666666667 190.95999999999998 65 190.95999999999998 C 82.33333333333334 190.95999999999998 91 182.03199999999998 108.33333333333334 169.46666666666664 C 125.66666666666666 156.9013333333333 134.33333333333334 142.5173333333333 151.66666666666666 128.13333333333333 C 169 113.74933333333333 177.66666666666666 109.11999999999999 195 97.54666666666665 C 212.33333333333334 85.97333333333333 221 81.83999999999999 238.33333333333334 70.26666666666665 C 255.66666666666669 58.693333333333314 264.33333333333337 47.94666666666665 281.6666666666667 39.67999999999998 C 299 31.413333333333306 307.6666666666667 28.93333333333331 325.00000000000006 28.93333333333331 C 342.33333333333337 28.93333333333331 351 41.829333333333274 368.33333333333337 55.38666666666663 C 385.6666666666667 68.94399999999993 394.33333333333337 81.17866666666663 411.6666666666667 96.71999999999997 C 429 112.26133333333331 437.6666666666667 118.70933333333326 455.00000000000006 133.0933333333333 C 472.33333333333337 147.4773333333333 498.33333333333337 168.64 498.33333333333337 168.64" stroke="#7cb5ec" stroke-width="2"  stroke-linejoin="round" stroke-linecap="round"></path></g><g class="highcharts-markers highcharts-series-0"  transform="translate(70,71) scale(1 1)" clip-path="none"><path fill="#7cb5ec" d="M 494 164.64 L 502 164.64 502 172.64 494 172.64 Z" stroke="#666666" stroke-width="1"></path><path fill="#7cb5ec" d="M 451 129.0933333333333 L 459 129.0933333333333 459 137.0933333333333 451 137.0933333333333 Z" stroke="#666666" stroke-width="1"></path><path fill="#7cb5ec" d="M 407 92.71999999999997 L 415 92.71999999999997 415 100.71999999999997 407 100.71999999999997 Z" stroke="#666666" stroke-width="1"></path><path fill="#7cb5ec" d="M 364 51.38666666666663 L 372 51.38666666666663 372 59.38666666666663 364 59.38666666666663 Z" stroke="#666666" stroke-width="1"></path><image preserveAspectRatio="none" xmlns:xlink="http://www.w3.org/1999/xlink" xlink:href="https://www.highcharts.com/samples/graphics/sun.png" x="321" y="24.93333333333331" width="30" height="30" transform="translate(-11,-11)" stroke="#666666" stroke-width="1" fill="#7cb5ec" r="4"></image><path fill="#7cb5ec" d="M 277 35.67999999999998 L 285 35.67999999999998 285 43.67999999999998 277 43.67999999999998 Z" stroke="#666666" stroke-width="1"></path><path fill="#7cb5ec" d="M 234 66.26666666666665 L 242 66.26666666666665 242 74.26666666666665 234 74.26666666666665 Z" stroke="#666666" stroke-width="1"></path><path fill="#7cb5ec" d="M 191 93.54666666666665 L 199 93.54666666666665 199 101.54666666666665 191 101.54666666666665 Z" stroke="#666666" stroke-width="1"></path><path fill="#7cb5ec" d="M 147 124.13333333333333 L 155 124.13333333333333 155 132.13333333333333 147 132.13333333333333 Z" stroke="#666666" stroke-width="1"></path><path fill="#7cb5ec" d="M 104 165.46666666666664 L 112 165.46666666666664 112 173.46666666666664 104 173.46666666666664 Z" stroke="#666666" stroke-width="1"></path><path fill="#7cb5ec" d="M 61 186.95999999999998 L 69 186.95999999999998 69 194.95999999999998 61 194.95999999999998 Z" stroke="#666666" stroke-width="1"></path><path fill="#7cb5ec" d="M 17 186.13333333333333 L 25 186.13333333333333 25 194.13333333333333 17 194.13333333333333 Z" stroke="#666666" stroke-width="1"></path></g><g class="highcharts-series highcharts-series-1"  transform="translate(70,71) scale(1 1)" clip-path="url(#highcharts-7)"><path fill="none" d="M 21.666666666666668 215.76 C 21.666666666666668 215.76 47.66666666666667 215.76 65 213.28 C 82.33333333333334 210.8 91 207.98933333333335 108.33333333333334 200.88 C 125.66666666666666 193.77066666666667 134.33333333333334 187.98399999999998 151.66666666666666 177.73333333333332 C 169 167.48266666666663 177.66666666666666 160.70399999999998 195 149.62666666666667 C 212.33333333333334 138.54933333333332 221 130.77866666666665 238.33333333333334 122.34666666666666 C 255.66666666666669 113.91466666666665 264.33333333333337 107.46666666666664 281.6666666666667 107.46666666666664 C 299 107.46666666666664 307.6666666666667 107.46666666666664 325.00000000000006 110.77333333333331 C 342.33333333333337 114.07999999999998 351 120.19733333333332 368.33333333333337 130.61333333333334 C 385.6666666666667 141.0293333333333 394.33333333333337 150.28799999999998 411.6666666666667 162.85333333333332 C 429 175.41866666666664 437.6666666666667 184.34666666666664 455.00000000000006 193.44 C 472.33333333333337 202.5333333333333 498.33333333333337 208.32 498.33333333333337 208.32" stroke="#434348" stroke-width="2"  stroke-linejoin="round" stroke-linecap="round"></path></g><g class="highcharts-markers highcharts-series-1"  transform="translate(70,71) scale(1 1)" clip-path="none"><path fill="#434348" d="M 498 204.32 L 502 208.32 498 212.32 494 208.32 Z" stroke="#666666" stroke-width="1"></path><path fill="#434348" d="M 455 189.44 L 459 193.44 455 197.44 451 193.44 Z" stroke="#666666" stroke-width="1"></path><path fill="#434348" d="M 411 158.85333333333332 L 415 162.85333333333332 411 166.85333333333332 407 162.85333333333332 Z" stroke="#666666" stroke-width="1"></path><path fill="#434348" d="M 368 126.61333333333334 L 372 130.61333333333334 368 134.61333333333334 364 130.61333333333334 Z" stroke="#666666" stroke-width="1"></path><path fill="#434348" d="M 325 106.77333333333331 L 329 110.77333333333331 325 114.77333333333331 321 110.77333333333331 Z" stroke="#666666" stroke-width="1"></path><path fill="#434348" d="M 281 103.46666666666664 L 285 107.46666666666664 281 111.46666666666664 277 107.46666666666664 Z" stroke="#666666" stroke-width="1"></path><path fill="#434348" d="M 238 118.34666666666666 L 242 122.34666666666666 238 126.34666666666666 234 122.34666666666666 Z" stroke="#666666" stroke-width="1"></path><path fill="#434348" d="M 195 145.62666666666667 L 199 149.62666666666667 195 153.62666666666667 191 149.62666666666667 Z" stroke="#666666" stroke-width="1"></path><path fill="#434348" d="M 151 173.73333333333332 L 155 177.73333333333332 151 181.73333333333332 147 177.73333333333332 Z" stroke="#666666" stroke-width="1"></path><path fill="#434348" d="M 108 196.88 L 112 200.88 108 204.88 104 200.88 Z" stroke="#666666" stroke-width="1"></path><path fill="#434348" d="M 65 209.28 L 69 213.28 65 217.28 61 213.28 Z" stroke="#666666" stroke-width="1"></path><image preserveAspectRatio="none" xmlns:xlink="http://www.w3.org/1999/xlink" xlink:href="https://www.highcharts.com/samples/graphics/snow.png" x="17" y="211.76" width="30" height="30" transform="translate(-11,-11)" stroke="#666666" stroke-width="1" fill="#434348" r="4"></image></g></g><text x="300" text-anchor="middle" class="highcharts-title"  style="color:#333333;font-size:18px;fill:#333333;width:536px;" y="24"><tspan>Monthly Average Temperature</tspan></text><text x="300" text-anchor="middle" class="highcharts-subtitle"  style="color:#555555;fill:#555555;width:536px;" y="52"><tspan>Source: WorldClimate.com</tspan></text><g class="highcharts-legend"  transform="translate(220,356)"><g ><g><g class="highcharts-legend-item"  transform="translate(8,3)"><path fill="none" d="M 0 11 L 16 11" stroke="#7cb5ec" stroke-width="2"></path><path fill="#7cb5ec" d="M 4 7 L 12 7 12 15 4 15 Z" stroke="#666666" stroke-width="1"></path><text x="21" style="color:#333333;font-size:12px;font-weight:bold;cursor:pointer;fill:#333333;" text-anchor="start"  y="15">Tokyo</text></g><g class="highcharts-legend-item"  transform="translate(85.8125,3)"><path fill="none" d="M 0 11 L 16 11" stroke="#434348" stroke-width="2"></path><path fill="#434348" d="M 8 7 L 12 11 8 15 4 11 Z" stroke="#666666" stroke-width="1"></path><text x="21" y="15" style="color:#333333;font-size:12px;font-weight:bold;cursor:pointer;fill:#333333;" text-anchor="start" >London</text></g></g></g></g><g class="highcharts-axis-labels highcharts-xaxis-labels" ><text x="91.66666666666667" style="color:#606060;cursor:default;font-size:11px;fill:#606060;" text-anchor="middle" transform="translate(0,0)" y="338" opacity="1">Jan</text><text x="135.00000000000003" style="color:#606060;cursor:default;font-size:11px;fill:#606060;" text-anchor="middle" transform="translate(0,0)" y="338" opacity="1">Feb</text><text x="178.33333333333334" style="color:#606060;cursor:default;font-size:11px;fill:#606060;" text-anchor="middle" transform="translate(0,0)" y="338" opacity="1">Mar</text><text x="221.66666666666669" style="color:#606060;cursor:default;font-size:11px;fill:#606060;" text-anchor="middle" transform="translate(0,0)" y="338" opacity="1">Apr</text><text x="264.99999999999994" style="color:#606060;cursor:default;font-size:11px;fill:#606060;" text-anchor="middle" transform="translate(0,0)" y="338" opacity="1">May</text><text x="308.3333333333333" style="color:#606060;cursor:default;font-size:11px;fill:#606060;" text-anchor="middle" transform="translate(0,0)" y="338" opacity="1">Jun</text><text x="351.6666666666667" style="color:#606060;cursor:default;font-size:11px;fill:#606060;" text-anchor="middle" transform="translate(0,0)" y="338" opacity="1">Jul</text><text x="395" style="color:#606060;cursor:default;font-size:11px;fill:#606060;" text-anchor="middle" transform="translate(0,0)" y="338" opacity="1">Aug</text><text x="438.33333333333337" style="color:#606060;cursor:default;font-size:11px;fill:#606060;" text-anchor="middle" transform="translate(0,0)" y="338" opacity="1">Sep</text><text x="481.6666666666667" style="color:#606060;cursor:default;font-size:11px;fill:#606060;" text-anchor="middle" transform="translate(0,0)" y="338" opacity="1">Oct</text><text x="525.0000000000001" style="color:#606060;cursor:default;font-size:11px;fill:#606060;" text-anchor="middle" transform="translate(0,0)" y="338" opacity="1">Nov</text><text x="568.3333333333334" style="color:#606060;cursor:default;font-size:11px;fill:#606060;" text-anchor="middle" transform="translate(0,0)" y="338" opacity="1">Dec</text></g><g class="highcharts-axis-labels highcharts-yaxis-labels" ><text x="55" style="color:#606060;cursor:default;font-size:11px;fill:#606060;width:188px;text-overflow:clip;" text-anchor="end" transform="translate(0,0)" y="322" opacity="1">0°</text><text x="55" style="color:#606060;cursor:default;font-size:11px;fill:#606060;width:188px;text-overflow:clip;" text-anchor="end" transform="translate(0,0)" y="280" opacity="1">5°</text><text x="55" style="color:#606060;cursor:default;font-size:11px;fill:#606060;width:188px;text-overflow:clip;" text-anchor="end" transform="translate(0,0)" y="239" opacity="1">10°</text><text x="55" style="color:#606060;cursor:default;font-size:11px;fill:#606060;width:188px;text-overflow:clip;" text-anchor="end" transform="translate(0,0)" y="198" opacity="1">15°</text><text x="55" style="color:#606060;cursor:default;font-size:11px;fill:#606060;width:188px;text-overflow:clip;" text-anchor="end" transform="translate(0,0)" y="156" opacity="1">20°</text><text x="55" style="color:#606060;cursor:default;font-size:11px;fill:#606060;width:188px;text-overflow:clip;" text-anchor="end" transform="translate(0,0)" y="115" opacity="1">25°</text><text x="55" style="color:#606060;cursor:default;font-size:11px;fill:#606060;width:188px;text-overflow:clip;" text-anchor="end" transform="translate(0,0)" y="73" opacity="1">30°</text></g><g class="highcharts-tooltip"  style="cursor:default;padding:0;pointer-events:none;white-space:nowrap;" transform="translate(0,-9999)"><path fill="none" d="M 3.5 0.5 L 13.5 0.5 C 16.5 0.5 16.5 0.5 16.5 3.5 L 16.5 13.5 C 16.5 16.5 16.5 16.5 13.5 16.5 L 3.5 16.5 C 0.5 16.5 0.5 16.5 0.5 13.5 L 0.5 3.5 C 0.5 0.5 0.5 0.5 3.5 0.5"  stroke="black" stroke-opacity="0.049999999999999996" stroke-width="5" transform="translate(1, 1)"></path><path fill="none" d="M 3.5 0.5 L 13.5 0.5 C 16.5 0.5 16.5 0.5 16.5 3.5 L 16.5 13.5 C 16.5 16.5 16.5 16.5 13.5 16.5 L 3.5 16.5 C 0.5 16.5 0.5 16.5 0.5 13.5 L 0.5 3.5 C 0.5 0.5 0.5 0.5 3.5 0.5"  stroke="black" stroke-opacity="0.09999999999999999" stroke-width="3" transform="translate(1, 1)"></path><path fill="none" d="M 3.5 0.5 L 13.5 0.5 C 16.5 0.5 16.5 0.5 16.5 3.5 L 16.5 13.5 C 16.5 16.5 16.5 16.5 13.5 16.5 L 3.5 16.5 C 0.5 16.5 0.5 16.5 0.5 13.5 L 0.5 3.5 C 0.5 0.5 0.5 0.5 3.5 0.5"  stroke="black" stroke-opacity="0.15" stroke-width="1" transform="translate(1, 1)"></path><path fill="rgb(249, 249, 249)" fill-opacity=" .85" d="M 3.5 0.5 L 13.5 0.5 C 16.5 0.5 16.5 0.5 16.5 3.5 L 16.5 13.5 C 16.5 16.5 16.5 16.5 13.5 16.5 L 3.5 16.5 C 0.5 16.5 0.5 16.5 0.5 13.5 L 0.5 3.5 C 0.5 0.5 0.5 0.5 3.5 0.5"></path><text x="8"  style="font-size:12px;color:#333333;fill:#333333;" y="20"></text></g><text x="590" text-anchor="end"  style="cursor:pointer;color:#909090;font-size:9px;fill:#909090;" y="395">Highcharts.com</text></svg>